<?xml version="1.0" encoding="utf-8"?>
<!-- Generator: Adobe Illustrator 24.1.2, SVG Export Plug-In . SVG Version: 6.00 Build 0)  -->
<svg version="1.1" id="Layer_1" xmlns="http://www.w3.org/2000/svg" xmlns:xlink="http://www.w3.org/1999/xlink" x="0px" y="0px"
	 viewBox="0 0 463 112.2" style="enable-background:new 0 0 463 112.2;" xml:space="preserve">
<style type="text/css">
	.st0{fill:#00FFFF;}
	.st1{opacity:0.5;}
	.st2{fill:#ED1C24;}
	.st3{fill:#768D91;}
</style>
<g>
	<path class="st0" d="M97,20.5c5.7,7.1,9.1,16.1,9.1,25.9c0,22.9-18.6,41.4-41.4,41.4S23.2,69.4,23.2,46.5S41.8,5.1,64.7,5.1
		c1.9,0,3.8,0.1,5.7,0.4C66.4,4.5,62.3,4,58.1,4C28.3,4,4,28.3,4,58.1c0,29.9,24.2,54.1,54.1,54.1c29.9,0,54.1-24.2,54.1-54.1
		C112.2,43.5,106.4,30.3,97,20.5z"/>
</g>
<g class="st1">
	<path class="st2" d="M103.8,32.8c1.5,4.3,2.3,8.9,2.3,13.7c0,22.9-18.6,41.4-41.4,41.4S23.2,69.4,23.2,46.5S41.8,5.1,64.7,5.1
		c9.7,0,18.5,3.3,25.6,8.8C80.7,5.3,68,0,54.1,0C24.2,0,0,24.2,0,54.1c0,29.9,24.2,54.1,54.1,54.1c29.9,0,54.1-24.2,54.1-54.1
		C108.2,46.5,106.6,39.4,103.8,32.8z"/>
</g>
<g>
	<path class="st3" d="M132.8,82.7H126l-12.8-50.4h6.9l6,25.5c1.5,6.5,2.8,12.3,3.7,17.4h0.1c0.5-3.4,1.9-9.2,4.1-17.5l6.7-25.4h6.8
		l6.1,25.6c1.8,7.5,3,13.2,3.5,17.3h0.1c0.6-3.5,2-9.3,4-17.4l6.7-25.4h6.7l-14.3,50.4h-6.8l-6.4-26.3c-1.6-6.6-2.7-12.1-3.3-16.5
		h-0.1c-0.9,5.2-2.2,10.7-3.9,16.5L132.8,82.7z"/>
	<path class="st3" d="M181.1,82.7V32.8c3.9-0.6,8.1-1,12.5-1c6.3,0,11.1,1.4,14.1,4.2c2.9,2.5,4.4,6.1,4.4,10.6s-1.3,8.1-3.9,10.8
		c-3.4,3.7-8.6,5.5-15.4,5.5c-2.3,0-4-0.2-5.2-0.4v20.2H181.1z M187.6,37.5v19.6c1.3,0.3,3.1,0.5,5.4,0.5c4,0,7.1-0.9,9.3-2.8
		c2.2-1.9,3.3-4.5,3.3-8c0-3.2-1.1-5.7-3.2-7.4c-2.1-1.7-5-2.5-8.7-2.5C191,37,188.9,37.2,187.6,37.5z"/>
	<path class="st3" d="M213.1,83.5c-1.3,0-2.4-0.4-3.2-1.3c-0.8-0.9-1.2-2-1.2-3.4c0-1.4,0.4-2.5,1.3-3.4c0.8-0.9,1.9-1.3,3.2-1.3
		c1.3,0,2.4,0.4,3.2,1.3c0.8,0.9,1.2,2,1.2,3.4c0,1.4-0.4,2.5-1.2,3.4S214.4,83.5,213.1,83.5z"/>
	<path class="st3" d="M225.9,82.7V32.8c3.9-0.6,8.1-1,12.5-1c6.3,0,11.1,1.4,14.1,4.2c2.9,2.5,4.4,6.1,4.4,10.6s-1.3,8.1-3.9,10.8
		c-3.4,3.7-8.6,5.5-15.4,5.5c-2.3,0-4-0.2-5.2-0.4v20.2H225.9z M232.4,37.5v19.6c1.3,0.3,3.1,0.5,5.4,0.5c4,0,7.1-0.9,9.3-2.8
		s3.3-4.5,3.3-8c0-3.2-1.1-5.7-3.2-7.4c-2.1-1.7-5-2.5-8.7-2.5C235.8,37,233.7,37.2,232.4,37.5z"/>
	<path class="st3" d="M265.8,82.7V32.9c3.4-0.7,7.6-1,12.5-1c6.7,0,11.5,1.4,14.6,4.1c2.6,2.3,4,5.5,4,9.6c0,3.2-0.9,5.9-2.7,8.1
		c-1.8,2.2-4.1,3.8-6.8,4.8v0.2c3.7,1.3,6.2,4.7,7.4,10.2c1.8,7.8,3.1,12.4,3.9,13.8h-6.7c-0.7-1.2-1.8-5.2-3.4-12
		c-0.7-3.5-1.9-6-3.4-7.4c-1.5-1.5-3.8-2.3-6.7-2.4h-6.1v21.9H265.8z M272.3,37.5v18.4h6.7c3.4,0,6.2-0.9,8.3-2.6
		c2.1-1.7,3.1-4.1,3.1-7c0-3.1-1-5.5-3.1-7c-2.1-1.5-4.9-2.3-8.5-2.4C275.8,36.9,273.7,37.1,272.3,37.5z"/>
	<path class="st3" d="M309.8,38.7c4.4-4.9,10-7.3,16.8-7.3c6.8,0,12.3,2.4,16.5,7.1c4.1,4.7,6.2,10.9,6.2,18.4
		c0,8.4-2.2,14.9-6.7,19.6c-4.4,4.7-10,7-16.8,7c-6.7,0-12.1-2.4-16.4-7.1c-4.2-4.7-6.3-10.9-6.3-18.5
		C303.2,50,305.4,43.6,309.8,38.7z M326.4,36.7c-5.1,0-9.1,2-11.9,6.1c-2.8,4.1-4.2,9-4.2,14.9c0,5.6,1.4,10.5,4.3,14.4
		c2.9,4,6.8,6,11.7,6c5,0,8.9-2,11.8-6c2.9-4,4.3-9,4.3-15c0-5.5-1.4-10.3-4.2-14.4C335.4,38.8,331.5,36.7,326.4,36.7z"/>
	<path class="st3" d="M357.8,82.7V32.8c3.9-0.6,8.1-1,12.5-1c6.3,0,11.1,1.4,14.1,4.2c2.9,2.5,4.4,6.1,4.4,10.6s-1.3,8.1-3.9,10.8
		c-3.4,3.7-8.6,5.5-15.4,5.5c-2.3,0-4-0.2-5.2-0.4v20.2H357.8z M364.3,37.5v19.6c1.3,0.3,3.1,0.5,5.4,0.5c4,0,7.1-0.9,9.3-2.8
		c2.2-1.9,3.3-4.5,3.3-8c0-3.2-1.1-5.7-3.2-7.4c-2.1-1.7-5-2.5-8.7-2.5C367.7,37,365.6,37.2,364.3,37.5z"/>
	<path class="st3" d="M423.7,53.6V59h-19.6v18.2H426v5.5h-28.4V32.2h27.2v5.5h-20.7v15.9H423.7z"/>
	<path class="st3" d="M434.4,82.7V32.2h6.5v45h21.6v5.5H434.4z"/>
</g>
</svg>
